<?xml version="1.0" encoding="utf-8"?>
<!-- Generator: Adobe Illustrator 22.1.0, SVG Export Plug-In . SVG Version: 6.00 Build 0)  -->
<svg version="1.1" xmlns="http://www.w3.org/2000/svg" xmlns:xlink="http://www.w3.org/1999/xlink" x="0px" y="0px"
	 viewBox="0 0 64 64" style="enable-background:new 0 0 64 64;" xml:space="preserve">
<style type="text/css">
	.st0{fill:none;stroke:#000000;stroke-linecap:round;stroke-linejoin:round;stroke-miterlimit:10;}
	.st1{fill:none;stroke:#231F20;stroke-linecap:round;stroke-linejoin:round;stroke-miterlimit:10;}
	.st2{fill:#FFFFFF;stroke:#000000;stroke-linecap:round;stroke-linejoin:round;stroke-miterlimit:10;}
	.st3{display:none;}
	.st4{display:inline;}
</style>
<g id="Layer_1">
	<g>
		<path class="st1" d="M32.2,14.6c16.5,0,23.6,5.3,27.6,10.8c0.5,0.6,0.7,1.4,0.7,2.1L61,39.7c0,1.2-0.4,2.3-1.3,3.1
			c-1.6,1.5-4.6,3.7-9.1,4.9c-7,1.9-8.7,0.6-10.9-2.1C37.5,42.8,35,39,32.2,39c-2.8,0-5.4,3.8-7.6,6.5c-2.2,2.7-3.9,4-10.9,2.1
			c-4.5-1.2-7.5-3.4-9.1-4.9c-0.9-0.8-1.3-1.9-1.3-3.1l0.5-12.2c0-0.8,0.3-1.5,0.7-2.1C8.5,19.9,15.6,14.6,32.2,14.6"/>
		<path class="st1" d="M32.2,41.9c0,0-1.3-0.2-3.7,2.7c-2.2,2.7-4.1,5.4-9.5,4.8c-6.3-0.7-12.7-5.3-12.7-5.3"/>
		<path class="st1" d="M32.2,41.9c0,0,1.3-0.2,3.7,2.7c2.2,2.7,4.1,5.4,9.5,4.8c6.3-0.7,12.7-5.3,12.7-5.3"/>
		<g>
			<line class="st1" x1="24.6" y1="28" x2="37.8" y2="20.6"/>
			<line class="st1" x1="27.1" y1="35.6" x2="35.2" y2="31"/>
			<line class="st1" x1="21.5" y1="34.4" x2="44.6" y2="21.3"/>
		</g>
		<polyline class="st1" points="3.9,27.7 1.4,27.7 0.9,39.6 3.3,39.6 		"/>
		<polyline class="st1" points="60.5,27.7 63,27.7 63.5,39.6 61,39.6 		"/>
	</g>
</g>
<g id="Layer_2" class="st3">
</g>
</svg>
